<svg width="1200" height="471.047" xmlns="http://www.w3.org/2000/svg" xmlns:xlink="http://www.w3.org/1999/xlink">
 <style type="text/css">.st0{fill-rule:evenodd;clip-rule:evenodd;fill:none;stroke:#fffff;stroke-width:2;}
  <defs>
   <style>path {
		stroke-dasharray:1800;
		animation: my_animation 3s;
		}

		@keyframes my_animation{
			0%{

				stroke-dashoffset:1800;
			}</style>
   <pattern id="img1" patternUnits="userSpaceOnUse" width="100" height="100">
    <image xlink:href="./img/1.png" x="0" y="0" width="100" height="100" id="svg_1"/>
   </pattern>
  </defs></style>
 <g>
  <title>background</title>
  <rect x="-1" y="-1" width="1202" height="473.047" id="canvas_background" fill="none"/>
 </g>
 <g>
  <title>Layer 1</title>
  <g stroke="null" id="svg_2">
   <path stroke="#ffffff" class="st0" d="m498.179694,3.660147c0.731993,1.515415 1.261002,3.150574 1.807498,4.843608c0.205483,0.634638 0.410341,1.269942 0.627066,1.899924c0.873145,2.542545 -0.199237,4.481052 -1.441502,6.724905c-0.429078,0.774339 -0.871896,1.575287 -1.240391,2.421471c-0.192991,0.443715 -0.142401,0.964597 0.132408,1.356423l0.45531,0.649939c0.242332,0.34659 0.617697,0.536183 1.002431,0.536183c0.181125,0 0.364123,-0.04191 0.535879,-0.129056l4.82291,-2.44542l0.906247,-0.45968l-2.331511,3.520447c-0.3966,0.59805 -0.264192,1.426273 0.29667,1.850696l3.933526,2.981603l2.134147,1.618527l-3.448237,0c-0.470299,0 -0.901251,0.281396 -1.114228,0.729102c-0.212978,0.447041 -0.171756,0.983889 0.106176,1.387689l2.551358,3.707379l-0.494657,0.156331c-0.377863,0.119743 -0.680779,0.423092 -0.81631,0.817579l-3.568779,10.397691c-0.134282,0.391161 -0.088689,0.826893 0.12304,1.176808s0.565234,0.574767 0.954964,0.606698l1.575159,0.128391l0.239834,0.019292l-0.150521,0.280731c-0.189869,0.353907 -0.216725,0.780991 -0.073074,1.158847l1.162945,3.064093l0.53463,1.409642c-0.214227,0.279401 -0.314782,0.643286 -0.271687,1.008503c0.054337,0.454358 0.324151,0.84685 0.713881,1.039769c1.774396,0.876786 3.59626,1.720974 5.358789,2.537223c4.037829,1.871318 8.212438,3.8065 11.987324,6.214001c3.747405,2.38954 7.542277,5.798892 11.279065,10.132926c6.085161,7.05952 10.253525,14.065156 12.7443,21.416051c4.228947,12.479226 6.59231,24.255293 7.224372,36.001425c0.16551,3.072741 0.652048,6.139494 1.122348,9.105797c0.283554,1.785502 0.576476,3.632207 0.791952,5.441658c0.097433,0.818244 -0.081818,1.703678 -0.30354,1.985074c-2.372732,3.018191 -3.787377,6.494067 -5.155805,9.855521c-0.266066,0.65393 -0.533381,1.310522 -0.80819,1.965117c-1.643237,3.916264 -3.906045,7.672871 -6.09453,11.305743c-0.725747,1.205414 -1.476478,2.451407 -2.196604,3.689418c-0.305414,0.526204 -0.950592,1.08301 -1.643862,1.418956c-4.709239,2.281106 -9.527777,4.538928 -14.187676,6.722909l-2.862393,1.341788c-0.12304,0.058541 -0.299168,0.109764 -0.485289,0.164314c-0.403471,0.117747 -0.906247,0.264765 -1.360933,0.620668c-3.31458,2.594434 -7.123817,3.803174 -11.989198,3.803174c-2.918604,0 -5.962122,-0.423092 -8.905708,-0.832214c-0.470299,-0.065193 -0.939974,-0.130387 -1.409024,-0.19425c-2.315896,-0.313328 -4.674888,-0.901399 -6.956433,-1.470844c-2.791192,-0.696506 -5.677943,-1.416295 -8.600919,-1.674408c-4.438177,-0.392491 -8.386068,-2.109474 -12.565674,-3.926908c-2.66503,-1.158182 -5.420621,-2.356943 -8.294881,-3.166539c-4.931585,-1.388355 -9.880658,-3.148578 -14.666094,-4.851591c-2.083557,-0.740411 -4.238315,-1.507432 -6.367466,-2.234539c-0.514019,-0.176288 -1.029912,-0.34659 -1.546429,-0.516891c-1.279114,-0.423757 -2.602573,-0.861485 -3.85608,-1.367732c-0.650799,-0.26277 -1.293479,-0.395817 -1.910552,-0.395817c-1.89244,0 -3.382033,1.243998 -3.886684,3.247033c-0.474671,1.882627 -0.568356,3.832444 -0.658919,5.717732c-0.036225,0.74906 -0.073074,1.523398 -0.134282,2.265805c-0.032478,0.396483 -0.016863,0.80627 -0.001874,1.203418c0.009369,0.240817 0.023109,0.613351 0.007495,0.832214c-2.648791,2.391536 -2.057325,5.534792 -1.735673,7.243126c0.465303,2.468703 0.110548,4.819659 -1.116102,7.398792c-0.64268,1.350436 -0.984943,2.804649 -1.315339,4.210965c-0.148023,0.629316 -0.287926,1.224706 -0.453436,1.809451c-0.06433,0.226847 -0.121791,0.457685 -0.179251,0.689188c-0.126787,0.509573 -0.24608,0.990541 -0.431576,1.359084c-0.61395,1.22271 -1.273493,2.45806 -1.911177,3.652829c-1.259753,2.359604 -2.561976,4.799702 -3.625614,7.338256c-0.732618,1.748914 -0.955588,3.659482 -1.171689,5.507517c-0.068078,0.58408 -0.132408,1.134898 -0.212353,1.681725c-0.084317,0.581419 -0.024358,1.160177 0.02873,1.671081c0.028106,0.269422 0.069327,0.667235 0.047467,0.834875c-1.854966,2.831924 -1.56704,5.814857 -1.313465,8.44854c0.104927,1.087001 0.204234,2.113466 0.166135,3.108664c-0.038099,1.010499 0.211728,1.983079 0.432825,2.841237c0.067453,0.26277 0.134907,0.524209 0.192991,0.784317c1.436505,6.456813 -0.272311,8.777168 -4.154623,11.020356c-2.279047,1.316509 -4.483146,1.956469 -6.737834,1.956469c-3.45136,0 -6.994532,-1.552669 -10.832499,-4.747813c-2.005486,-1.66842 -4.04345,-2.480012 -6.229436,-2.480012c-1.314715,0 -2.716869,0.295366 -4.285782,0.904726c-0.914991,0.355903 -1.741294,0.528865 -2.524502,0.528865c-1.084874,0 -2.116659,-0.327298 -3.249,-1.029791c-1.392786,-0.864811 -2.842407,-1.645802 -4.244561,-2.400184c-1.782516,-0.95994 -3.626239,-1.953808 -5.301329,-3.097355c-3.914789,-2.674928 -7.088217,-6.696965 -9.432219,-11.955017c-0.906247,-2.034302 -0.906872,-4.034012 -0.000625,-5.633247c0.926234,-1.635158 2.706251,-2.628361 4.882244,-2.725486c0.176753,-0.007983 0.352256,-0.011974 0.525261,-0.011974c2.30403,0 4.279537,0.689188 6.216945,2.170011c2.059199,1.573291 4.198343,2.924392 6.356848,4.013389c2.495147,1.261294 5.117082,1.873314 8.015075,1.873314c3.961632,0 7.848315,-1.155521 11.606963,-2.273123c0.558988,-0.16631 1.117976,-0.33262 1.676339,-0.494273c1.59577,-0.463672 3.318327,-3.350146 3.021658,-5.063137c-0.881889,-5.083759 -2.072315,-10.351125 -3.639979,-16.102784c-0.472798,-1.733614 -1.816867,-3.128621 -3.152192,-4.407876c-0.432201,-0.414444 -0.552118,-0.671227 -0.583346,-0.761699c0.056211,-0.071181 0.240458,-0.259443 0.740113,-0.476977c1.861211,-0.808931 3.534428,-1.478827 5.163924,-1.478827c1.845597,0 3.415135,0.908052 4.941578,2.857868c0.238585,0.305345 0.590841,0.478972 0.959336,0.478972c0.042471,0 0.085566,-0.002661 0.128036,-0.007318c0.413464,-0.045236 0.778836,-0.307341 0.974325,-0.697836c0.331645,-0.663244 0.70826,-1.271272 1.072382,-1.858679c0.796948,-1.286573 1.549552,-2.501965 1.493965,-3.881672c-0.247953,-6.050352 1.518948,-11.49068 3.388903,-17.250988c0.963083,-2.964972 1.958644,-6.03106 2.640047,-9.161011c0.547121,-2.511279 0.786955,-5.096399 1.01867,-7.596368c0.15864,-1.712991 0.322901,-3.483859 0.584595,-5.183545c0.309161,-2.009688 0.883138,-3.890985 1.661974,-5.44698c0.190493,-0.151675 0.844415,-0.396483 1.490843,-0.396483c0.086815,0 0.16676,0.005322 0.23109,0.014635c9.159907,1.351766 16.792122,2.502631 24.656676,3.961501c4.731099,0.878116 9.525279,1.924538 14.162068,2.935701c2.929222,0.639295 5.95775,1.300543 8.94693,1.913894c1.134839,0.233499 1.868706,0.37453 2.495772,0.37453c2.276549,0 2.543863,-1.808786 2.914232,-4.312747l0.018112,-0.122404c0.214851,-1.456209 0.544623,-2.876495 0.979946,-4.222274c1.124846,-3.475211 0.229216,-6.471449 -0.636434,-9.368566c-0.370993,-1.242002 -0.722,-2.415484 -0.908121,-3.604932c-0.081194,-0.522878 -0.446566,-0.943975 -0.929356,-1.072366l-0.047467,-0.01264l-0.796948,-0.211546c-0.100555,-0.02661 -0.201735,-0.039249 -0.301042,-0.039249c-0.527135,0 -1.013049,0.357899 -1.185429,0.914039c-0.091811,0.295366 -0.188619,0.590067 -0.285427,0.884103c-0.227967,0.692514 -0.463429,1.408312 -0.640182,2.158037c-0.133657,0.566784 -0.222971,1.132903 -0.309161,1.680395c-0.142401,0.900734 -0.276059,1.751575 -0.571479,2.416815c-0.104303,0.166975 -0.517142,0.409787 -0.870647,0.513565c-0.161763,-0.243478 -0.359126,-0.641956 -0.415962,-0.926678c-0.256697,-1.281916 -0.399723,-2.582459 -0.550244,-3.959505c-0.073074,-0.665905 -0.146773,-1.332474 -0.232964,-1.995718c-0.048716,-0.371869 -0.083067,-0.753716 -0.119292,-1.157517c-0.100555,-1.108289 -0.204234,-2.254496 -0.612701,-3.356133c-0.131159,-0.354573 -0.279182,-0.689188 -0.422208,-1.012494c-0.169258,-0.381847 -0.442818,-1.001185 -0.466552,-1.269277c0.097433,-0.072511 0.405969,-0.252126 1.206664,-0.391826c0.720751,-0.12573 1.535187,-0.668566 2.112912,-3.741972c0.317905,-1.693699 1.17731,-2.799993 2.785571,-3.588301c0.798822,-0.390496 1.579531,-0.827558 2.376479,-1.27859c2.107915,-1.195435 3.73304,-1.752906 5.113959,-1.752906c1.883071,0 3.669959,1.032452 6.167604,3.561692c2.766834,2.802654 5.952753,5.636573 10.026807,8.918199c1.500211,1.208075 2.691261,1.746919 3.86295,1.746919c1.834979,0 3.220895,-1.313848 5.144563,-3.138599c7.76275,-7.359543 4.565589,-15.107586 1.744417,-21.942921c-0.179875,-0.435732 -0.359126,-0.870133 -0.53463,-1.302539c-2.741227,-6.747523 -7.023262,-13.240925 -13.092184,-19.852739c-3.958509,-4.313412 -5.837208,-9.706508 -5.583009,-16.028943c0.031853,-0.77833 -0.150521,-1.502111 -0.311035,-2.14074c-0.06433,-0.256117 -0.125538,-0.498264 -0.168633,-0.725776c-0.066829,-0.351912 -0.264192,-0.660583 -0.547121,-0.854833c-0.203609,-0.1397 -0.439071,-0.212211 -0.677031,-0.212211c-0.093685,0 -0.18737,0.011309 -0.279806,0.033927c-0.214227,0.052554 -0.472798,0.087146 -0.746358,0.1244c-0.77946,0.104443 -1.663223,0.22352 -2.36836,0.848845c-2.371483,2.102156 -4.395082,4.111845 -6.185092,6.143486c-0.961209,1.090993 -1.789386,1.599235 -2.60632,1.599235c-0.344137,0 -0.696393,-0.087146 -1.077379,-0.267426c-3.373914,-1.592583 -6.928327,-3.423322 -10.862478,-5.595994c-0.084317,-0.175623 -0.191742,-0.561462 -0.258571,-0.802944c-0.063706,-0.227512 -0.128661,-0.463007 -0.206732,-0.690518c-0.977448,-2.851216 -1.745042,-5.162258 -2.417076,-7.275723c-0.059334,-0.186932 -0.031228,-0.606698 -0.011242,-0.914039c0.044344,-0.671892 0.117419,-1.341788 0.19424,-2.050933c0.174254,-1.606553 0.354754,-3.267656 0.179251,-4.938072c-0.126163,-1.197431 -0.850661,-2.122114 -1.69008,-3.193149c-0.386607,-0.492942 -0.785706,-1.002516 -1.184805,-1.602562c-0.237336,-0.356568 -0.619571,-0.561462 -1.019294,-0.561462c-0.088064,0 -0.176753,0.009979 -0.264817,0.029936c-0.316031,0.073176 -0.585844,0.271418 -0.763222,0.543501c-0.72887,-2.758082 -2.179116,-5.099725 -3.628113,-7.126044c-1.086747,-1.519407 -1.048024,-2.244518 0.189869,-3.526434c2.819922,-2.919736 5.647339,-5.924622 8.382321,-8.831053c2.805557,-2.980938 5.706049,-6.062992 8.594049,-9.049917c1.673216,-1.730288 3.501325,-3.489846 5.53117,-4.642706c0.75073,-0.426418 1.853716,-0.488951 3.021033,-0.555475c0.621445,-0.035258 1.2635,-0.071846 1.920545,-0.162984c0.442194,-0.061202 0.820057,-0.369208 0.991813,-0.807601c0.171131,-0.438393 0.110548,-0.941314 -0.159889,-1.318504l-0.608329,-0.848845l0.453436,0.224851l3.725545,1.846705c0.168009,0.083155 0.347884,0.1244 0.527135,0.1244c0.267315,0 0.532756,-0.091138 0.753228,-0.269422l0.261694,-0.210216l0.267315,-0.214872c0.451562,-0.363221 0.617073,-1.004511 0.403471,-1.562647l-2.562601,-6.714926l-0.471548,-1.236015c0.46218,0.386504 0.923735,0.766356 1.380919,1.142216c3.975372,3.269652 7.729648,6.357693 9.535272,11.692913c0.174879,0.516226 0.628939,0.865476 1.144208,0.878781c0.010618,0 0.020611,0 0.031228,0c0.502777,0 0.958087,-0.321976 1.152327,-0.817579c1.486471,-3.79253 1.686332,-7.619652 1.879324,-11.319713c0.060583,-1.054404 0.114296,-2.085525 0.194865,-3.100016m-0.804443,-3.660147c-1.0474,5.805544 -0.148647,11.784716 -2.417076,17.570968c-2.568222,-7.589716 -8.845125,-10.93587 -13.838542,-15.645765c-0.225469,0.147018 -0.451562,0.294701 -0.677031,0.441719c1.434007,3.757272 2.867389,7.515209 4.301396,11.271816c-0.176128,0.141696 -0.352881,0.283392 -0.529633,0.425753c-2.483905,-1.230693 -4.967185,-2.462051 -7.45109,-3.692744c-0.130535,0.214207 -0.261069,0.429079 -0.392228,0.643286c0.934978,1.304534 1.869955,2.608404 2.752469,3.840427c-1.931787,0.268091 -3.914165,0.038584 -5.368158,0.864146c-2.143516,1.217388 -4.047197,3.035487 -5.814099,4.862235c-5.710421,5.903999 -11.270945,11.972313 -16.977619,17.880969c-1.733175,1.795481 -1.735049,3.298257 -0.312908,5.286657c2.289665,3.202462 4.127142,6.65572 3.823602,10.936535c-0.026232,0.372534 0.339765,0.775669 0.812562,1.776854c0.371618,-2.066899 0.619571,-3.447936 1.013049,-5.637238c1.249135,1.879301 2.525126,2.95832 2.653163,4.175042c0.231715,2.205934 -0.229216,4.492362 -0.377863,6.747523c-0.031853,0.476311 -0.064955,0.996529 0.074324,1.434921c0.776962,2.446085 1.594521,4.8782 2.426445,7.304328c0.258571,0.755712 0.41846,1.86134 0.943097,2.151384c3.63186,2.008358 7.311187,3.932895 11.051722,5.697775c0.554616,0.262104 1.081126,0.381182 1.583279,0.381182c1.305971,0 2.450178,-0.807601 3.517564,-2.019002c1.89119,-2.147393 3.947267,-4.147768 6.073295,-6.031725c0.618946,-0.548822 1.716936,-0.483629 2.595703,-0.699167c0.161138,0.848845 0.489661,1.705674 0.45531,2.545871c-0.264192,6.573896 1.625125,12.317572 5.937763,17.016823c5.281967,5.754321 9.876286,12.15858 12.839234,19.450934c2.862393,7.046216 6.656016,14.565416 -0.893756,21.723392c-1.803126,1.709 -2.95358,2.801988 -4.313888,2.801988c-0.87377,0 -1.834355,-0.451032 -3.109722,-1.478162c-3.433248,-2.7654 -6.804039,-5.665179 -9.919381,-8.821074c-2.598825,-2.632352 -4.666768,-3.928239 -7.028258,-3.928239c-1.6601,0 -3.465725,0.641291 -5.700428,1.908572c-0.761972,0.431075 -1.526443,0.86082 -2.310275,1.243998c-1.860587,0.911378 -3.073497,2.32102 -3.489459,4.536267c-0.182998,0.97258 -0.59209,2.602416 -1.090495,2.689563c-3.5744,0.62466 -2.006735,2.508618 -1.277865,4.475731c0.479668,1.293225 0.472798,2.795336 0.657045,4.208304c0.262943,2.018336 0.401597,4.063282 0.798822,6.050352c0.156766,0.784317 0.861279,2.022993 1.328455,2.029645c0.006246,0 0.012491,0 0.018737,0c0.789453,0 1.966139,-0.602042 2.278422,-1.302539c0.587718,-1.319835 0.630813,-2.907761 0.974325,-4.364636c0.236087,-1.00052 0.595837,-1.967778 0.900002,-2.949671c0.280431,0.073842 0.560862,0.149014 0.841917,0.22352c0.638308,4.086566 3.038521,7.863129 1.59577,12.322229c-0.465927,1.438913 -0.811313,2.944349 -1.033035,4.449121c-0.372867,2.520592 -0.469675,3.311562 -1.698199,3.311562c-0.517766,0 -1.236019,-0.1397 -2.259685,-0.349916c-7.715907,-1.583935 -15.391217,-3.417335 -23.130858,-4.854252c-8.201196,-1.521402 -16.452357,-2.75143 -24.699772,-3.968818c-0.124289,-0.017961 -0.25982,-0.027275 -0.402221,-0.027275c-0.961209,0 -2.239075,0.40247 -2.554481,1.024469c-0.91749,1.807455 -1.51645,3.89032 -1.830607,5.933935c-0.647677,4.212296 -0.685775,8.555644 -1.587026,12.694098c-1.944279,8.930173 -6.453656,17.177811 -6.060179,26.770563c0.058709,1.438248 -1.365305,2.94568 -2.420824,5.05715c-1.956145,-2.499304 -3.929154,-3.336841 -5.900914,-3.336841c-1.886194,0 -3.771139,0.766356 -5.636097,1.577283c-1.619504,0.704489 -2.190983,1.856683 -0.520889,3.45858c1.114853,1.067709 2.396466,2.351621 2.788694,3.789869c1.433382,5.258052 2.678146,10.591941 3.611249,15.973728c0.181749,1.049748 -1.139211,3.252355 -2.12228,3.537743c-4.279537,1.242667 -8.5928,2.720829 -12.954155,2.720829c-2.477035,0 -4.970308,-0.476977 -7.480445,-1.744923c-2.151635,-1.086336 -4.228947,-2.414154 -6.164481,-3.892981c-2.134147,-1.630502 -4.365727,-2.419476 -6.945191,-2.419476c-0.190493,0 -0.38286,0.004657 -0.5771,0.013305c-5.328185,0.23616 -8.271148,5.067128 -5.95775,10.257991c2.256562,5.061806 5.426867,9.457708 9.885655,12.504505c3.051012,2.084195 6.451782,3.578323 9.591483,5.527474c1.311592,0.814253 2.568222,1.210736 3.87794,1.210736c0.943097,0 1.913675,-0.206224 2.952331,-0.609359c1.326581,-0.514895 2.597576,-0.824232 3.857954,-0.824232c1.799379,0 3.577523,0.631312 5.460594,2.197951c3.571277,2.972955 7.41549,5.029875 11.601342,5.029875c2.334633,0 4.775443,-0.63996 7.333672,-2.118122c4.536234,-2.620378 6.301262,-5.633912 4.774819,-12.496522c-0.241083,-1.081014 -0.633936,-2.186642 -0.592715,-3.264995c0.138654,-3.634203 -1.366554,-7.414093 0.958087,-10.902608c0.454061,-0.68054 -0.045593,-2.012349 0.099306,-3.010208c0.336017,-2.307715 0.419709,-4.773758 1.289732,-6.8513c1.574535,-3.757272 3.66871,-7.265745 5.497443,-10.9066c0.351007,-0.697836 0.487787,-1.521402 0.705761,-2.29308c0.54837,-1.942499 0.839419,-4.021372 1.686332,-5.801553c1.272244,-2.674928 1.778768,-5.332559 1.226651,-8.262273c-0.425955,-2.261814 -0.562111,-4.396567 1.485222,-6.110889c0.478419,-0.400474 0.186121,-1.8334 0.264817,-2.789349c0.213602,-2.594434 0.12991,-5.276679 0.755102,-7.75403c0.353505,-1.40432 1.344694,-2.261814 2.680019,-2.261814c0.453436,0 0.946844,0.098455 1.468358,0.309336c1.79001,0.72245 3.638106,1.283912 5.463092,1.907241c7.024511,2.399518 13.974074,5.101056 21.096017,7.106087c7.138182,2.009688 13.465676,6.46014 21.076655,7.133362c5.212016,0.45968 10.292248,2.433446 15.50239,3.139265c3.48696,0.472985 7.008272,1.037108 10.472748,1.037108c4.396331,0 8.70085,-0.908052 12.728686,-4.061286c0.443443,-0.34659 1.085498,-0.392491 1.61076,-0.639295c5.695431,-2.672932 11.398357,-5.327237 17.06256,-8.071349c0.839419,-0.406461 1.713189,-1.11095 2.189109,-1.929194c2.899867,-4.986634 6.137,-9.834234 8.36858,-15.152157c1.687581,-4.022703 3.082865,-8.076671 5.781621,-11.509972c0.550869,-0.700497 0.701389,-2.029645 0.58522,-3.007547c-0.575227,-4.828973 -1.64636,-9.61537 -1.906805,-14.454986c-0.675782,-12.550406 -3.317703,-24.634479 -7.296822,-36.377285c-2.79494,-8.248968 -7.476698,-15.457502 -12.999124,-21.864423c-3.390777,-3.932895 -7.280584,-7.648257 -11.557622,-10.375073c-5.500566,-3.507807 -11.613208,-5.927948 -17.462283,-8.817083c0.174879,-0.15234 0.350382,-0.305345 0.525261,-0.457685c-0.633311,-1.66709 -1.264749,-3.33418 -2.032967,-5.356507c0.111798,-0.20822 0.502152,-0.937988 1.127969,-2.106813c-1.452119,-0.118413 -2.508888,-0.204894 -3.782381,-0.308671c1.18418,-3.451927 2.312774,-6.73954 3.568779,-10.397691c0.23109,-0.073176 0.991813,-0.311997 2.195979,-0.691849c-1.211036,-1.759558 -2.225334,-3.233063 -3.601881,-5.233438c2.372107,0 4.152125,0 5.932767,0c0.103054,-0.282061 0.206107,-0.564123 0.309161,-0.845519c-2.72936,-2.068894 -5.458096,-4.138454 -8.136866,-6.168765c1.438379,-2.171341 2.732483,-4.125815 4.026587,-6.080288c-0.226093,-0.23749 -0.452811,-0.475646 -0.678905,-0.713802c-2.768083,1.40299 -5.534917,2.80731 -8.303001,4.2103c-0.15177,-0.217533 -0.304164,-0.434401 -0.456559,-0.651935c1.411523,-3.240381 4.143381,-6.025738 2.721865,-10.163527c-1.18418,-3.44727 -2.021725,-7.024928 -4.411945,-9.946659l0,0z" id="svg_3"/>
  </g>
 </g>
</svg>