<svg width="900" height="471.047" xmlns="http://www.w3.org/2000/svg" xmlns:xlink="http://www.w3.org/1999/xlink">
 <style type="text/css">.st0{fill-rule:evenodd;clip-rule:evenodd;fill:none;stroke:#fffff;stroke-width:5;}
  <defs>
   <style>
    <!-- . {
			stroke-dasharray:800;
			stroke-dashoffset:0;
			-webkit-animation: dash 2s linear forwards;
			-o-animation: dash 2s linear forwards;
			-moz-animation: dash 2s linear forwards;
			animation: dash 2s linear forwards;
		} -->path {
		stroke-dasharray:1800;
		animation: my_animation 3s;
		}

		@keyframes my_animation{
			0%{

				stroke-dashoffset:1800;
			}
    <!-- 100%{
				fill="url(#img1)" ;
			} -->}</style>
   <pattern height="100" width="100" patternUnits="userSpaceOnUse" id="img1">
    <image id="svg_1" height="100" width="100" y="0" x="0" xlink:href="./img/1.png"/>
   </pattern>
  </defs></style>
 <g>
  <title>background</title>
  <rect fill="none" id="canvas_background" height="473.047" width="902" y="-1" x="-1"/>
 </g>
 <g>
  <title>Layer 1</title>
  <g id="svg_2">
   <path stroke="#ffffff" id="svg_3" d="m147.604,18.807c2.374,5.816 4.676,11.594 5.712,17.912c0.875,5.342 2.21,5.547 6.107,2.015c4.043,-3.667 9.183,-5.391 13.899,-7.796c6.616,-3.372 13.569,-6.07 20.596,-8.513c1.659,-0.576 3.626,-1.42 4.721,0.695c0.902,1.747 -0.463,3.11 -1.713,4.132c-5.628,4.599 -11.314,9.123 -16.98,13.675c-3.145,2.525 -6.191,5.184 -9.457,7.539c-3.003,2.165 -2.221,4.012 0.225,5.652c4.561,3.059 9.294,5.862 13.86,8.915c4.278,2.86 8.466,5.859 12.632,8.884c2.815,2.045 4.162,4.87 3.901,8.393c-0.113,1.558 0.5,3.483 -1.262,4.375c-1.734,0.879 -3.577,0.193 -4.989,-0.922c-1.943,-1.534 -3.794,-2.87 -6.477,-2.784c-4.159,0.135 -5.331,1.399 -4.424,5.358c0.36,1.572 0.747,3.159 1.324,4.66c3.626,9.409 -0.225,18.155 -2.681,26.879c-1.71,6.078 -0.816,11.054 3.428,15.49c2.683,2.803 5.487,5.466 7.69,8.702c2.099,3.078 4.482,5.773 8.015,7.517c2.565,1.267 4.44,3.728 6.186,6.065c0.964,1.291 0.913,2.734 -0.129,4.034c-0.928,1.159 -2.074,1.439 -3.44,0.772c-2.836,-1.386 -5.577,-1.142 -8.359,0.306c-2.142,1.114 -4.225,0.354 -5.826,-1.124c-2.68,-2.47 -4.813,-1.869 -6.997,0.614c-1.166,1.325 -2.412,2.827 -4.307,2.953c-4.578,0.302 -4.149,3.08 -3.228,6.155c1.401,4.683 1.904,9.493 1.987,14.347c0.054,3.146 -0.632,6.081 -2.949,8.463c-2.34,2.407 -2.386,5.307 -1.045,8.104c3.658,7.639 5.452,15.542 6.446,24.05c0.725,6.192 1.494,11.954 -0.13,18.005c-0.556,2.068 0.254,4.307 1.537,5.955c2.856,3.669 2.506,7.564 1.042,11.439c-0.879,2.325 -0.933,4.29 0.257,6.456c2.185,3.974 3.301,8.361 4.738,12.631c1.669,4.962 5.877,8.229 9.574,11.275c3.79,3.123 7.633,6.331 11.639,9.274c4.952,3.638 10.573,5.531 16.191,7.462c2.093,0.719 4.832,2.687 6.832,-0.731c0.51,-0.87 1.471,-0.094 2.052,0.458c8.977,8.52 18.149,16.868 25.83,26.619c5.574,7.077 7.74,15.057 4.579,23.863c-0.719,2 -0.496,3.264 1.146,4.617c1.938,1.6 1.998,3.638 0.347,5.536c-1.161,1.334 -1.667,2.845 -1.284,4.482c1.811,7.747 -0.785,15.063 -2.119,22.492c-1.021,5.693 -2.815,11.19 -3.364,17.041c-0.481,5.164 -1.354,10.839 -8.494,11.739c-1.919,0.243 -2.564,2.242 -2.89,4.096c-0.579,3.301 -1.88,6.34 -3.45,9.813c-0.911,-3.072 0.318,-5.293 0.966,-7.563c0.849,-2.983 -0.059,-4.408 -3.194,-5.092c-8.431,-1.841 -16.9,-2.39 -25.488,-1.733c-2.534,0.194 -5.097,0.031 -7.644,0.859c5.739,0 11.478,0 17.219,0c0.026,0.367 0.054,0.735 0.08,1.103c-4.691,-0.338 -9.232,0.567 -13.831,0.965c-3.03,0.263 -3.28,1.241 -1.428,3.547c3.73,4.646 3.729,4.876 -0.167,9.256c-1.813,2.036 -2.002,4.379 -1.863,6.798c0.198,3.438 -1.466,4.957 -4.688,5.525c-4.594,0.81 -9.029,2.229 -13.826,2.185c-4.243,-0.042 -8.078,2.076 -11.91,3.832c-1.736,0.795 -3.749,2.031 -5.505,0.883c-1.938,-1.267 0.054,-3.246 -0.069,-4.918c-0.046,-0.622 -0.008,-1.25 -0.008,-2.17c-1.318,0.883 -1.165,2.076 -1.499,3.024c-0.612,1.732 -0.481,4.14 -3.373,3.757c-2.465,-0.325 -2.952,-2.117 -2.775,-4.496c-1.328,3.12 -2.722,5.699 -5.732,7.17c-1.786,0.872 -2.664,0.881 -2.99,-1.256c-0.18,-1.175 0.344,-3.011 -1.458,-3.097c-1.683,-0.081 -2.172,1.689 -2.817,2.971c-0.217,0.432 -0.338,0.909 -0.496,1.367c-0.205,0.599 -0.354,1.363 -1.12,1.346c-0.796,-0.018 -0.76,-0.848 -1.009,-1.415c-2.435,-5.538 -2.392,-11.318 -1.521,-17.118c0.729,-4.843 1.262,-9.542 -1.123,-14.186c-1.495,-2.912 -1.05,-6.343 -1.723,-9.501c-0.673,-3.158 1.3,-2.57 2.911,-2.994c1.108,-0.292 2.412,-0.773 1.962,-2.233c-0.572,-1.853 -2.298,-2.691 -3.994,-3.197c-1.444,-0.431 -1.972,0.7 -2.15,1.94c-0.068,0.479 -0.058,0.97 -0.119,1.45c-0.079,0.608 -0.073,1.433 -0.952,1.315c-0.737,-0.096 -0.875,-0.879 -0.908,-1.513c-0.18,-3.384 -0.597,-6.785 0.275,-10.134c1.61,-6.173 2.733,-12.311 -0.128,-18.479c-0.447,-0.962 -0.373,-2.235 -0.312,-3.353c0.186,-3.352 -1.167,-5.745 -4.414,-6.632c-2.767,-0.754 -3.539,-2.578 -3.412,-5.07c0.168,-3.295 -0.295,-6.478 -1.759,-9.429c-1.19,-2.398 -0.464,-4.807 -0.175,-7.152c1.044,-8.481 -1.466,-16.629 -2.119,-24.944c-0.606,-7.718 -1.215,-15.437 -1.844,-23.152c-0.117,-1.443 -0.025,-2.999 -0.544,-4.297c-2.429,-6.064 -2.574,-12.292 -1.626,-18.611c0.408,-2.715 -0.674,-5.078 -1.391,-7.545c-1.346,-4.627 -2.219,-9.189 1.716,-13.15c0.427,-0.432 0.828,-1.14 0.82,-1.715c-0.114,-7.656 2.177,-15.638 -1.903,-22.818c-5.284,-9.303 -7.899,-19.754 -13.096,-29.088c-4.067,-7.305 -16.348,-10.641 -23.002,-5.739c-2.002,1.475 -4.058,1.766 -6.347,1.817c-6.527,0.147 -11.745,4.193 -13.699,10.647c-0.335,1.104 -0.662,2.196 -1.462,3.016c-1.567,1.605 -1.249,5.215 -4.568,4.88c-5.31,-0.536 -10.897,-4.412 -11.239,-7.968c-0.292,-3.044 -1.256,-3.87 -4.446,-4.025c-4.277,-0.208 -8.617,-1.224 -11.677,-4.975c-2.338,-2.868 -5.766,-2.425 -9.003,-2.453c-1.204,-0.012 -3.069,0.315 -3.047,-1.457c0.021,-1.607 1.862,-1.739 3.077,-1.566c7.758,1.118 10.88,-5.157 15.229,-9.444c0.963,-0.949 0.979,-2.348 1.052,-3.652c0.346,-6.263 1.29,-12.527 -4.621,-17.299c-5.94,-4.793 -7.278,-12.369 -10.279,-18.886c-1.664,-3.61 -0.71,-7.799 -1.499,-11.64c-1.718,-8.376 4.881,-14.654 5.585,-22.481c0.203,-2.264 0.254,-3.88 -1.599,-4.903c-2.531,-1.397 -4.226,-3.348 -5.548,-5.864c-0.563,-1.074 -1.661,-2.138 -2.768,-2.606c-4.707,-1.988 -5.488,-5.804 -5.521,-10.313c-0.034,-4.638 0.059,-9.211 -1.074,-13.909c-1.369,-5.682 2.949,-10.261 4.989,-15.294c2.522,-6.221 7.005,-9.226 13.304,-10.82c6.399,-1.62 11.38,-6.991 18.043,-7.935c9.346,-1.324 18.156,-4.663 27.735,-5.626c10.82,-1.087 21.772,-0.737 32.581,-2.865c6.298,-1.24 13.024,-2.17 19.593,-1.241c3.23,0.456 4.063,-0.763 4.055,-3.595c-0.01,-4.36 0.105,-8.723 0.167,-13.084c3.881,-0.001 7.762,-0.001 11.644,-0.001z" class="st0"/>
  </g>
 </g>
</svg>
